Coordinates
version=1
nRows=14
nColumns=42
inDegrees=yes

Units are S.I. units (second, meters, Newtons, ...)
If the header above contains a line with 'inDegrees', this indicates whether rotational values are in degrees (yes) or radians (no).

endheader
time	pelvis_tilt	pelvis_list	pelvis_rotation	pelvis_tx	pelvis_ty	pelvis_tz	hip_flexion_r	hip_adduction_r	hip_rotation_r	knee_angle_r	knee_angle_r_beta	ankle_angle_r	subtalar_angle_r	mtp_angle_r	hip_flexion_l	hip_adduction_l	hip_rotation_l	knee_angle_l	knee_angle_l_beta	ankle_angle_l	subtalar_angle_l	mtp_angle_l	lumbar_extension	lumbar_bending	lumbar_rotation	sh_tx_r	sh_ty_r	sh_tz_r	sh_plane_elev_r	sh_elev_r	sh_axial_rot_r	elbow_flex_r	pro_sup_r	sh_tx_l	sh_ty_l	sh_tz_l	sh_plane_elev_l	sh_elev_l	sh_axial_rot_l	elbow_flex_l	pro_sup_l
      2.01694910	     -8.04652044	     -0.51838895	     -2.78611692	      0.28965087	      0.93032211	     -0.03454356	      5.51478511	     -5.09955252	     -1.96217580	      0.95186736	      0.01661322	      4.34461948	      2.98883661	     -7.49999958	      4.75286089	     -3.93485019	    -11.69424527	      0.68087245	      0.01188347	      9.88679035	      5.20807507	     -7.49999958	      6.55080606	     -6.32143660	      6.93140150	     -0.00058835	      0.02793934	     -0.00694453	    -22.44517369	     80.50764194	    -67.68031910	     98.93713347	     49.77765565	      0.01504514	      0.01492978	     -0.00688802	     37.17780016	     13.11220049	      1.83621861	     22.67909916	     60.81951085
      2.03389830	     -8.05036008	     -0.51332912	     -2.74304580	      0.28956561	      0.93080166	     -0.03454735	      5.47742758	     -5.09790631	     -1.96711555	      0.89978969	      0.01570429	      4.39329624	      2.98312779	     -7.49999966	      4.78865471	     -3.92993234	    -11.56146499	      0.67931430	      0.01185627	      9.86405493	      5.14353325	     -7.49999966	      6.53287617	     -6.35277486	      7.45571233	     -0.00070866	      0.02726277	     -0.00692806	    -23.49104259	     80.73364253	    -68.64770384	     98.26673584	     46.96023131	      0.01606084	      0.01509536	     -0.00692921	     39.02804930	     13.26433299	      0.49110525	     22.36298932	     61.14468524
      2.05084750	     -8.09716099	     -0.50043249	     -2.72473910	      0.28954261	      0.93126538	     -0.03456555	      5.48359472	     -5.10270479	     -1.97956018	      0.83379609	      0.01455249	      4.46045421	      3.07358898	     -7.49999976	      4.86898116	     -3.91860753	    -11.49639134	      0.66928584	      0.01168124	      9.86606767	      5.17998146	     -7.49999976	      6.60089710	     -6.34495046	      7.71505794	     -0.00015921	      0.02708395	     -0.00694788	    -23.91056856	     80.97746469	    -69.65123943	     97.62521250	     46.08437911	      0.01710318	      0.01509320	     -0.00695895	     39.16566595	     13.21481996	      0.33983548	     22.40342580	     60.89269499
      2.06779660	     -8.37975389	     -0.46385689	     -2.73769892	      0.28907420	      0.93176835	     -0.03449751	      6.05757536	     -5.12869351	     -2.03673295	      1.33448904	      0.02329123	      4.88859316	      3.26418166	     -7.49999980	      5.46202741	     -3.94825723	    -11.30808668	      1.17049956	      0.02042907	      9.96003031	      4.82129412	     -7.49999980	      6.85002751	     -6.40955913	      7.96108744	      0.00036283	      0.02654038	     -0.00597148	    -24.41657734	     81.18192820	    -70.40181964	     97.15226098	     47.79155827	      0.01705357	      0.01480835	     -0.00616642	     36.92491037	     13.24038994	      3.52261886	     23.82443909	     60.68943356
      2.08474580	     -8.12393366	     -0.49300226	     -2.70224514	      0.28950172	      0.93286249	     -0.03456806	      5.43897259	     -5.08109939	     -1.85793344	      0.70792692	      0.01235566	      4.48728723	      2.88748196	     -7.49999981	      4.93357990	     -3.91765735	    -11.46441045	      0.65217325	      0.01138257	      9.86216240	      5.42305383	     -7.49999981	      6.76962746	     -6.35418070	      7.61997671	      0.00153973	      0.02623865	     -0.00697928	    -23.33547693	     81.26546306	    -71.65952450	     96.36932570	     46.60358462	      0.01880911	      0.01482101	     -0.00705538	     36.81384013	     12.83062489	      1.58493756	     22.91300529	     60.44003472
      2.10169490	     -8.04870452	     -0.49266014	     -2.62266936	      0.28937436	      0.93310128	     -0.03464509	      5.32415361	     -5.08594088	     -2.04983812	      0.67766909	      0.01182756	      4.58998594	      3.19333798	     -7.49999983	      4.87566195	     -3.90923990	    -11.29595305	      0.65151727	      0.01137112	      9.76688520	      5.32373222	     -7.49999983	      6.61926174	     -6.37016816	      7.89136213	      0.00103872	      0.02683849	     -0.00689809	    -23.67510710	     81.06698310	    -72.44994873	     96.44384046	     43.86582996	      0.01842628	      0.01451357	     -0.00696312	     38.58878424	     13.06687680	     -0.01750533	     22.85923061	     60.71500254
      2.11864410	     -7.98324955	     -0.49930940	     -2.57363646	      0.28922501	      0.93297272	     -0.03467907	      5.24078051	     -5.07934325	     -2.17706102	      0.67842386	      0.01184073	      4.61744388	      3.35448701	     -7.49999984	      4.80724951	     -3.92279872	    -11.25821253	      0.65243773	      0.01138719	      9.73109661	      5.32571307	     -7.49999984	      6.57999423	     -6.36422211	      8.21179648	      0.00062567	      0.02749990	     -0.00682171	    -24.00318289	     80.81435193	    -73.22571601	     96.43117503	     44.67408819	      0.01958402	      0.01430210	     -0.00696806	     37.89500845	     13.00622390	      0.71020855	     23.40747538	     60.65999228
      2.13559320	     -7.96047662	     -0.50036797	     -2.54170626	      0.28906055	      0.93248319	     -0.03474989	      5.21754355	     -5.08215894	     -2.18509806	      0.68701690	      0.01199071	      4.55436831	      3.29139178	     -7.49999985	      4.78878400	     -3.93134591	    -11.31840477	      0.66277414	      0.01156759	      9.73018420	      5.44135899	     -7.49999985	      6.53811120	     -6.36847892	      7.75454534	      0.00127247	      0.02761292	     -0.00682514	    -23.29457712	     80.65097323	    -74.10863695	     96.19561821	     44.52162228	      0.01792015	      0.01435098	     -0.00688618	     37.43872650	     12.98816904	      0.33792546	     23.53433607	     60.39298993
      2.15254240	     -7.91168532	     -0.51308770	     -2.47459980	      0.28945863	      0.93152989	     -0.03443085	      5.14231154	     -5.07513319	     -2.31267799	      0.68725437	      0.01199485	      4.62087602	      3.41390881	     -7.49999985	      4.74270249	     -3.94843827	    -11.28712367	      0.67472244	      0.01177613	      9.70957519	      5.45330376	     -7.49999985	      6.47239873	     -6.35804439	      7.82268223	      0.00106755	      0.02792751	     -0.00681245	    -23.52433728	     80.48640902	    -74.95801754	     95.83127915	     44.52109290	      0.01791763	      0.01451812	     -0.00690924	     37.25249001	     12.98239301	      0.33339380	     23.84953704	     60.37616833
      2.16949150	     -7.81231036	     -0.52842180	     -2.43142621	      0.29078994	      0.93066631	     -0.03314821	      4.98161201	     -5.04211243	     -2.23441606	      0.66275304	      0.01156722	      4.57055626	      3.19828093	     -7.49999985	      4.61138316	     -3.97683588	    -11.18515966	      0.67462749	      0.01177447	      9.70298935	      5.33500953	     -7.49999985	      6.41945160	     -6.37252159	      8.02907314	      0.00188001	      0.02717218	     -0.00680178	    -24.42184841	     80.65585615	    -75.57999246	     95.04788262	     44.29689588	      0.01868854	      0.01506352	     -0.00691013	     36.76021542	     12.86253664	      0.24680643	     24.18108376	     60.42897812
      2.18644070	     -7.78556808	     -0.55782163	     -2.40135439	      0.29217975	      0.93070550	     -0.03172813	      4.87639541	     -4.96501564	     -2.26035170	      0.63529911	      0.01108806	      4.62223185	      3.22747013	     -7.49999985	      4.54215030	     -4.05222278	    -11.19663386	      0.69016036	      0.01204557	      9.75767602	      5.34561534	     -7.49999985	      6.40800767	     -6.39452188	      8.10928180	      0.00148804	      0.02763264	     -0.00674606	    -25.09733392	     80.33143502	    -76.67596815	     94.82475194	     44.07892201	      0.01814588	      0.01565112	     -0.00686081	     36.42287260	     12.86446532	      0.24553587	     24.42663645	     60.47602642
      2.20338980	     -7.76686850	     -0.56152586	     -2.35456969	      0.29200338	      0.93176410	     -0.03181929	      4.78115020	     -4.92616412	     -2.25827349	      0.61015305	      0.01064918	      4.62392098	      3.16812082	     -7.49999986	      4.49447959	     -4.09186103	    -11.15417988	      0.70756336	      0.01234931	      9.77078488	      5.29747233	     -7.49999986	      6.45661620	     -6.43825539	      8.70502647	      0.00227120	      0.02687468	     -0.00666187	    -27.06744413	     80.34314720	    -77.34024882	     94.60442685	     39.44552892	      0.01980338	      0.01584683	     -0.00692460	     36.54987245	     12.82761601	      0.00779846	     24.70098655	     61.70537747
      2.22033900	     -7.73063442	     -0.53203085	     -2.32281578	      0.29074236	      0.93268266	     -0.03294668	      4.69839931	     -4.94199763	     -2.28871904	      0.58301102	      0.01017546	      4.67191734	      3.25366473	     -7.49999986	      4.43632613	     -4.07526022	    -11.13912361	      0.72037503	      0.01257292	      9.78772226	      5.27939525	     -7.49999986	      6.47496263	     -6.49810221	      8.73148166	      0.00252984	      0.02735273	     -0.00663193	    -27.63480125	     79.87959358	    -78.74830595	     94.72177666	     40.06404029	      0.01995677	      0.01597826	     -0.00689243	     36.24927541	     12.81490592	      0.28059858	     24.80018787	     61.64472177
      2.23728810	     -8.04592857	     -0.49497449	     -2.17846093	      0.28969386	      0.93239718	     -0.03351096	      5.26270993	     -4.98364789	     -2.39746957	      1.02646185	      0.01791514	      4.82635500	      3.25226627	     -7.49999986	      5.09103146	     -4.09370023	    -10.94579120	      1.29115938	      0.02253498	     10.03520058	      5.06588631	     -7.49999986	      6.67833619	     -6.72362667	      8.34768105	      0.00330170	      0.02601071	     -0.00583228	    -27.92798073	     79.54568833	    -80.08929913	     94.34191158	     40.80909793	      0.01741644	      0.01651865	     -0.00603661	     36.04093358	     13.01244163	      0.64437291	     25.38820760	     61.55987284
